<mxfile host="app.diagrams.net" agent="Mozilla/5.0 (Windows NT 10.0; Win64; x64) AppleWebKit/537.36 (KHTML, like Gecko) Chrome/135.0.0.0 Safari/537.36" version="26.2.14">
  <diagram name="Page-1" id="bayrTUQzr6rm-B2fiH4k">
    <mxGraphModel dx="1478" dy="704" grid="0" gridSize="10" guides="1" tooltips="1" connect="1" arrows="1" fold="1" page="1" pageScale="1" pageWidth="850" pageHeight="1100" math="0" shadow="0">
      <root>
        <mxCell id="0" />
        <mxCell id="1" parent="0" />
        <mxCell id="6knvUdZFvinEVk0oOwhZ-30" value="" style="group" vertex="1" connectable="0" parent="1">
          <mxGeometry x="68" y="28" width="695" height="482" as="geometry" />
        </mxCell>
        <mxCell id="6knvUdZFvinEVk0oOwhZ-6" style="edgeStyle=orthogonalEdgeStyle;rounded=0;orthogonalLoop=1;jettySize=auto;html=1;" edge="1" parent="6knvUdZFvinEVk0oOwhZ-30" source="nqtnf3yNVIgsVQNh1ZjG-2" target="6knvUdZFvinEVk0oOwhZ-1">
          <mxGeometry relative="1" as="geometry" />
        </mxCell>
        <mxCell id="nqtnf3yNVIgsVQNh1ZjG-2" value="&lt;font face=&quot;Times New Roman&quot;&gt;Admin&lt;/font&gt;" style="rounded=1;whiteSpace=wrap;html=1;" parent="6knvUdZFvinEVk0oOwhZ-30" vertex="1">
          <mxGeometry x="132.5" y="181" width="70" height="50" as="geometry" />
        </mxCell>
        <mxCell id="6knvUdZFvinEVk0oOwhZ-27" style="edgeStyle=orthogonalEdgeStyle;rounded=0;orthogonalLoop=1;jettySize=auto;html=1;entryX=0;entryY=0.25;entryDx=0;entryDy=0;exitX=0.5;exitY=0;exitDx=0;exitDy=0;" edge="1" parent="6knvUdZFvinEVk0oOwhZ-30" source="nqtnf3yNVIgsVQNh1ZjG-3" target="6knvUdZFvinEVk0oOwhZ-18">
          <mxGeometry relative="1" as="geometry" />
        </mxCell>
        <mxCell id="nqtnf3yNVIgsVQNh1ZjG-3" value="&lt;font face=&quot;Times New Roman&quot;&gt;Teacher&lt;/font&gt;" style="rounded=1;whiteSpace=wrap;html=1;" parent="6knvUdZFvinEVk0oOwhZ-30" vertex="1">
          <mxGeometry x="284" y="109" width="70" height="50" as="geometry" />
        </mxCell>
        <mxCell id="nqtnf3yNVIgsVQNh1ZjG-4" value="&lt;font face=&quot;Times New Roman&quot;&gt;Student&lt;/font&gt;" style="rounded=1;whiteSpace=wrap;html=1;" parent="6knvUdZFvinEVk0oOwhZ-30" vertex="1">
          <mxGeometry x="448" y="280" width="70" height="50" as="geometry" />
        </mxCell>
        <mxCell id="nqtnf3yNVIgsVQNh1ZjG-6" value="" style="endArrow=classic;html=1;rounded=0;exitX=0.5;exitY=1;exitDx=0;exitDy=0;entryX=0.47;entryY=-0.002;entryDx=0;entryDy=0;entryPerimeter=0;" parent="6knvUdZFvinEVk0oOwhZ-30" source="nqtnf3yNVIgsVQNh1ZjG-2" edge="1">
          <mxGeometry width="50" height="50" relative="1" as="geometry">
            <mxPoint x="22.5" y="331" as="sourcePoint" />
            <mxPoint x="167.75" y="285.85" as="targetPoint" />
          </mxGeometry>
        </mxCell>
        <mxCell id="nqtnf3yNVIgsVQNh1ZjG-7" value="&lt;span style=&quot;font-family: &amp;quot;Times New Roman&amp;quot;; font-size: 12px;&quot;&gt;Authorizes&amp;nbsp;&lt;/span&gt;&lt;div&gt;&lt;span style=&quot;font-family: &amp;quot;Times New Roman&amp;quot;; font-size: 12px;&quot;&gt;user&lt;/span&gt;&lt;/div&gt;" style="edgeLabel;html=1;align=center;verticalAlign=middle;resizable=0;points=[];labelBackgroundColor=none;" parent="nqtnf3yNVIgsVQNh1ZjG-6" vertex="1" connectable="0">
          <mxGeometry x="-0.1605" relative="1" as="geometry">
            <mxPoint x="-28" y="3" as="offset" />
          </mxGeometry>
        </mxCell>
        <mxCell id="6knvUdZFvinEVk0oOwhZ-8" value="&lt;span style=&quot;font-family: &amp;quot;Times New Roman&amp;quot;; font-size: 12px;&quot;&gt;User data&lt;/span&gt;" style="edgeLabel;html=1;align=center;verticalAlign=middle;resizable=0;points=[];labelBackgroundColor=#FFFFFF;rotation=-90;" vertex="1" connectable="0" parent="nqtnf3yNVIgsVQNh1ZjG-6">
          <mxGeometry x="-0.1605" relative="1" as="geometry">
            <mxPoint x="-107" y="-13" as="offset" />
          </mxGeometry>
        </mxCell>
        <mxCell id="nqtnf3yNVIgsVQNh1ZjG-60" style="edgeStyle=orthogonalEdgeStyle;rounded=0;orthogonalLoop=1;jettySize=auto;html=1;entryX=0.5;entryY=0;entryDx=0;entryDy=0;" parent="6knvUdZFvinEVk0oOwhZ-30" edge="1">
          <mxGeometry relative="1" as="geometry">
            <mxPoint x="511.9999878161682" y="40.470588235294144" as="sourcePoint" />
            <mxPoint x="636.4999999999998" y="135.4999999999999" as="targetPoint" />
          </mxGeometry>
        </mxCell>
        <mxCell id="nqtnf3yNVIgsVQNh1ZjG-61" value="&lt;font style=&quot;font-size: 12px;&quot; face=&quot;Times New Roman&quot;&gt;Store OTP&lt;/font&gt;" style="edgeLabel;html=1;align=center;verticalAlign=middle;resizable=0;points=[];" parent="nqtnf3yNVIgsVQNh1ZjG-60" vertex="1" connectable="0">
          <mxGeometry x="0.4315" relative="1" as="geometry">
            <mxPoint x="-44" y="-13" as="offset" />
          </mxGeometry>
        </mxCell>
        <mxCell id="nqtnf3yNVIgsVQNh1ZjG-15" value="" style="endArrow=classic;html=1;rounded=0;entryX=0.443;entryY=0.023;entryDx=0;entryDy=0;exitX=0.529;exitY=1.003;exitDx=0;exitDy=0;exitPerimeter=0;entryPerimeter=0;" parent="6knvUdZFvinEVk0oOwhZ-30" target="nqtnf3yNVIgsVQNh1ZjG-4" edge="1">
          <mxGeometry width="50" height="50" relative="1" as="geometry">
            <mxPoint x="478.67499999999995" y="210.72500000000002" as="sourcePoint" />
            <mxPoint x="774" y="-56.72999999999999" as="targetPoint" />
          </mxGeometry>
        </mxCell>
        <mxCell id="nqtnf3yNVIgsVQNh1ZjG-41" value="&lt;font face=&quot;Times New Roman&quot; style=&quot;font-size: 12px;&quot;&gt;Receive&lt;/font&gt;&lt;div&gt;&lt;font face=&quot;Times New Roman&quot; style=&quot;font-size: 12px;&quot;&gt;OTP&lt;/font&gt;&lt;/div&gt;" style="edgeLabel;html=1;align=center;verticalAlign=middle;resizable=0;points=[];rotation=0;labelBackgroundColor=none;" parent="nqtnf3yNVIgsVQNh1ZjG-15" vertex="1" connectable="0">
          <mxGeometry x="0.0938" relative="1" as="geometry">
            <mxPoint x="-22" as="offset" />
          </mxGeometry>
        </mxCell>
        <mxCell id="nqtnf3yNVIgsVQNh1ZjG-19" value="" style="endArrow=classic;html=1;rounded=0;entryX=0.469;entryY=0.003;entryDx=0;entryDy=0;exitX=0.5;exitY=1;exitDx=0;exitDy=0;entryPerimeter=0;" parent="6knvUdZFvinEVk0oOwhZ-30" target="6knvUdZFvinEVk0oOwhZ-21" edge="1">
          <mxGeometry width="50" height="50" relative="1" as="geometry">
            <mxPoint x="476.5" y="75.99999999999989" as="sourcePoint" />
            <mxPoint x="476.5" y="135.5" as="targetPoint" />
          </mxGeometry>
        </mxCell>
        <mxCell id="nqtnf3yNVIgsVQNh1ZjG-39" value="&lt;font face=&quot;Times New Roman&quot; style=&quot;font-size: 12px;&quot;&gt;Send&amp;nbsp;&lt;/font&gt;&lt;div&gt;&lt;font face=&quot;Times New Roman&quot; style=&quot;font-size: 12px;&quot;&gt;OTP&lt;/font&gt;&lt;/div&gt;" style="edgeLabel;html=1;align=center;verticalAlign=middle;resizable=0;points=[];rotation=0;labelBackgroundColor=none;" parent="nqtnf3yNVIgsVQNh1ZjG-19" vertex="1" connectable="0">
          <mxGeometry x="-0.1421" relative="1" as="geometry">
            <mxPoint x="-16" y="5" as="offset" />
          </mxGeometry>
        </mxCell>
        <mxCell id="nqtnf3yNVIgsVQNh1ZjG-24" value="" style="endArrow=classic;html=1;rounded=0;exitX=1;exitY=0.5;exitDx=0;exitDy=0;entryX=0.33;entryY=0.01;entryDx=0;entryDy=0;entryPerimeter=0;" parent="6knvUdZFvinEVk0oOwhZ-30" source="nqtnf3yNVIgsVQNh1ZjG-2" target="6knvUdZFvinEVk0oOwhZ-13" edge="1">
          <mxGeometry width="50" height="50" relative="1" as="geometry">
            <mxPoint x="432.5" y="321" as="sourcePoint" />
            <mxPoint x="296.18000000000006" y="241.98000000000002" as="targetPoint" />
            <Array as="points">
              <mxPoint x="294" y="206" />
            </Array>
          </mxGeometry>
        </mxCell>
        <mxCell id="nqtnf3yNVIgsVQNh1ZjG-28" value="&lt;div&gt;&lt;font face=&quot;Times New Roman&quot;&gt;Requests Reports&lt;/font&gt;&lt;/div&gt;" style="text;html=1;align=center;verticalAlign=middle;resizable=0;points=[];autosize=1;strokeColor=none;fillColor=none;" parent="6knvUdZFvinEVk0oOwhZ-30" vertex="1">
          <mxGeometry x="195" y="206" width="110" height="30" as="geometry" />
        </mxCell>
        <mxCell id="nqtnf3yNVIgsVQNh1ZjG-29" value="" style="endArrow=classic;html=1;rounded=0;exitX=0.448;exitY=0.995;exitDx=0;exitDy=0;entryX=0.559;entryY=0.044;entryDx=0;entryDy=0;entryPerimeter=0;exitPerimeter=0;" parent="6knvUdZFvinEVk0oOwhZ-30" source="6knvUdZFvinEVk0oOwhZ-14" target="6knvUdZFvinEVk0oOwhZ-15" edge="1">
          <mxGeometry width="50" height="50" relative="1" as="geometry">
            <mxPoint x="305" y="311" as="sourcePoint" />
            <mxPoint x="305" y="411" as="targetPoint" />
          </mxGeometry>
        </mxCell>
        <mxCell id="nqtnf3yNVIgsVQNh1ZjG-30" value="&lt;font face=&quot;Times New Roman&quot; style=&quot;font-size: 12px;&quot;&gt;Retrieve&amp;nbsp;&lt;/font&gt;&lt;font style=&quot;background-color: transparent; color: light-dark(rgb(0, 0, 0), rgb(255, 255, 255)); font-size: 12px;&quot; face=&quot;Times New Roman&quot;&gt;Attendance&amp;nbsp;&lt;/font&gt;&lt;div&gt;&lt;span style=&quot;background-color: transparent; color: light-dark(rgb(0, 0, 0), rgb(255, 255, 255)); font-size: 12px; font-family: &amp;quot;Times New Roman&amp;quot;;&quot;&gt;Data&lt;/span&gt;&lt;/div&gt;" style="edgeLabel;html=1;align=center;verticalAlign=middle;resizable=0;points=[];labelBackgroundColor=none;rotation=0;" parent="nqtnf3yNVIgsVQNh1ZjG-29" vertex="1" connectable="0">
          <mxGeometry x="-0.0914" y="-1" relative="1" as="geometry">
            <mxPoint x="53" y="7" as="offset" />
          </mxGeometry>
        </mxCell>
        <mxCell id="nqtnf3yNVIgsVQNh1ZjG-42" value="" style="endArrow=classic;html=1;rounded=0;exitX=0.543;exitY=0.996;exitDx=0;exitDy=0;exitPerimeter=0;" parent="6knvUdZFvinEVk0oOwhZ-30" source="nqtnf3yNVIgsVQNh1ZjG-3" edge="1">
          <mxGeometry width="50" height="50" relative="1" as="geometry">
            <mxPoint x="319" y="68" as="sourcePoint" />
            <mxPoint x="321" y="259" as="targetPoint" />
          </mxGeometry>
        </mxCell>
        <mxCell id="nqtnf3yNVIgsVQNh1ZjG-43" value="&lt;font face=&quot;Times New Roman&quot;&gt;&lt;span style=&quot;font-size: 12px;&quot;&gt;View Attendance&lt;/span&gt;&lt;/font&gt;" style="edgeLabel;html=1;align=center;verticalAlign=middle;resizable=0;points=[];rotation=-90;" parent="nqtnf3yNVIgsVQNh1ZjG-42" vertex="1" connectable="0">
          <mxGeometry x="-0.2901" y="2" relative="1" as="geometry">
            <mxPoint x="-12" y="15" as="offset" />
          </mxGeometry>
        </mxCell>
        <mxCell id="nqtnf3yNVIgsVQNh1ZjG-44" value="" style="endArrow=classic;html=1;rounded=0;entryX=0.981;entryY=0.443;entryDx=0;entryDy=0;entryPerimeter=0;exitX=0;exitY=0.5;exitDx=0;exitDy=0;" parent="6knvUdZFvinEVk0oOwhZ-30" source="nqtnf3yNVIgsVQNh1ZjG-4" target="6knvUdZFvinEVk0oOwhZ-14" edge="1">
          <mxGeometry width="50" height="50" relative="1" as="geometry">
            <mxPoint x="490" y="321" as="sourcePoint" />
            <mxPoint x="338.95000000000005" y="283.63" as="targetPoint" />
          </mxGeometry>
        </mxCell>
        <mxCell id="nqtnf3yNVIgsVQNh1ZjG-45" value="&lt;span style=&quot;font-family: &amp;quot;Times New Roman&amp;quot;; background-color: rgb(255, 255, 255);&quot;&gt;View Personal&amp;nbsp;&lt;/span&gt;&lt;div&gt;&lt;span style=&quot;font-family: &amp;quot;Times New Roman&amp;quot;; background-color: rgb(255, 255, 255);&quot;&gt;Attendance&lt;/span&gt;&lt;/div&gt;" style="text;html=1;align=center;verticalAlign=middle;resizable=0;points=[];autosize=1;strokeColor=none;fillColor=none;rotation=0;" parent="6knvUdZFvinEVk0oOwhZ-30" vertex="1">
          <mxGeometry x="354" y="304" width="100" height="40" as="geometry" />
        </mxCell>
        <mxCell id="nqtnf3yNVIgsVQNh1ZjG-47" value="" style="endArrow=classic;html=1;rounded=0;entryX=0;entryY=0.44;entryDx=0;entryDy=0;exitX=1;exitY=0.5;exitDx=0;exitDy=0;entryPerimeter=0;" parent="6knvUdZFvinEVk0oOwhZ-30" source="nqtnf3yNVIgsVQNh1ZjG-4" target="6knvUdZFvinEVk0oOwhZ-20" edge="1">
          <mxGeometry width="50" height="50" relative="1" as="geometry">
            <mxPoint x="524.76" y="336" as="sourcePoint" />
            <mxPoint x="595.9999999999977" y="287.5" as="targetPoint" />
          </mxGeometry>
        </mxCell>
        <mxCell id="nqtnf3yNVIgsVQNh1ZjG-48" value="&lt;font face=&quot;Times New Roman&quot; style=&quot;font-size: 12px;&quot;&gt;Enter OTP&lt;/font&gt;" style="edgeLabel;html=1;align=center;verticalAlign=middle;resizable=0;points=[];labelBackgroundColor=none;" parent="nqtnf3yNVIgsVQNh1ZjG-47" vertex="1" connectable="0">
          <mxGeometry x="0.0938" relative="1" as="geometry">
            <mxPoint x="-5" y="-7" as="offset" />
          </mxGeometry>
        </mxCell>
        <mxCell id="nqtnf3yNVIgsVQNh1ZjG-51" value="&lt;font face=&quot;Times New Roman&quot;&gt;Mark Attendance&lt;/font&gt;" style="text;html=1;align=center;verticalAlign=middle;resizable=0;points=[];autosize=1;strokeColor=none;fillColor=none;rotation=0;" parent="6knvUdZFvinEVk0oOwhZ-30" vertex="1">
          <mxGeometry x="546" y="371" width="110" height="30" as="geometry" />
        </mxCell>
        <mxCell id="nqtnf3yNVIgsVQNh1ZjG-53" value="" style="endArrow=classic;html=1;rounded=0;entryX=1;entryY=0.5;entryDx=0;entryDy=0;exitX=0;exitY=0.5;exitDx=0;exitDy=0;" parent="6knvUdZFvinEVk0oOwhZ-30" source="6knvUdZFvinEVk0oOwhZ-24" target="6knvUdZFvinEVk0oOwhZ-15" edge="1">
          <mxGeometry width="50" height="50" relative="1" as="geometry">
            <mxPoint x="449.775" y="417.15" as="sourcePoint" />
            <mxPoint x="342.5" y="426" as="targetPoint" />
          </mxGeometry>
        </mxCell>
        <mxCell id="nqtnf3yNVIgsVQNh1ZjG-54" value="&lt;font face=&quot;Times New Roman&quot;&gt;Store Attendance&amp;nbsp;&lt;/font&gt;&lt;div&gt;&lt;font face=&quot;Times New Roman&quot;&gt;Records&lt;/font&gt;&lt;/div&gt;" style="text;html=1;align=center;verticalAlign=middle;resizable=0;points=[];autosize=1;strokeColor=none;fillColor=none;rotation=0;" parent="6knvUdZFvinEVk0oOwhZ-30" vertex="1">
          <mxGeometry x="354" y="442" width="110" height="40" as="geometry" />
        </mxCell>
        <mxCell id="nqtnf3yNVIgsVQNh1ZjG-57" value="" style="endArrow=classic;html=1;rounded=0;exitX=0.5;exitY=0;exitDx=0;exitDy=0;entryX=0.5;entryY=1;entryDx=0;entryDy=0;" parent="6knvUdZFvinEVk0oOwhZ-30" source="6knvUdZFvinEVk0oOwhZ-19" target="6knvUdZFvinEVk0oOwhZ-16" edge="1">
          <mxGeometry width="50" height="50" relative="1" as="geometry">
            <mxPoint x="633.5" y="250" as="sourcePoint" />
            <mxPoint x="637.4999999999998" y="188.4999999999999" as="targetPoint" />
          </mxGeometry>
        </mxCell>
        <mxCell id="nqtnf3yNVIgsVQNh1ZjG-59" value="&lt;font style=&quot;font-size: 12px;&quot; face=&quot;Times New Roman&quot;&gt;Verify OTP&lt;/font&gt;" style="edgeLabel;html=1;align=center;verticalAlign=middle;resizable=0;points=[];rotation=-90;" parent="nqtnf3yNVIgsVQNh1ZjG-57" vertex="1" connectable="0">
          <mxGeometry x="-0.2174" relative="1" as="geometry">
            <mxPoint x="-10" y="-2" as="offset" />
          </mxGeometry>
        </mxCell>
        <mxCell id="6knvUdZFvinEVk0oOwhZ-1" value="1.1" style="swimlane;fontStyle=0;childLayout=stackLayout;horizontal=1;startSize=20;fillColor=#ffffff;horizontalStack=0;resizeParent=1;resizeParentMax=0;resizeLast=0;collapsible=0;marginBottom=0;swimlaneFillColor=#ffffff;align=left;fontFamily=Times New Roman;rounded=1;" vertex="1" parent="6knvUdZFvinEVk0oOwhZ-30">
          <mxGeometry x="25" y="289" width="90" height="77" as="geometry" />
        </mxCell>
        <mxCell id="6knvUdZFvinEVk0oOwhZ-2" value="&lt;span style=&quot;color: rgb(0, 0, 0); font-family: &amp;quot;Times New Roman&amp;quot;; font-size: 12px; font-style: normal; font-variant-ligatures: normal; font-variant-caps: normal; font-weight: 400; letter-spacing: normal; orphans: 2; text-indent: 0px; text-transform: none; widows: 2; word-spacing: 0px; -webkit-text-stroke-width: 0px; white-space: normal; text-decoration-thickness: initial; text-decoration-style: initial; text-decoration-color: initial; float: none; background-color: light-dark(#ffffff, var(--ge-dark-color, #121212)); display: inline !important;&quot;&gt;Add&amp;nbsp;&lt;/span&gt;&lt;div&gt;&lt;span style=&quot;color: rgb(0, 0, 0); font-family: &amp;quot;Times New Roman&amp;quot;; font-size: 12px; font-style: normal; font-variant-ligatures: normal; font-variant-caps: normal; font-weight: 400; letter-spacing: normal; orphans: 2; text-indent: 0px; text-transform: none; widows: 2; word-spacing: 0px; -webkit-text-stroke-width: 0px; white-space: normal; text-decoration-thickness: initial; text-decoration-style: initial; text-decoration-color: initial; float: none; background-color: light-dark(#ffffff, var(--ge-dark-color, #121212)); display: inline !important;&quot;&gt;Users&amp;nbsp;&lt;/span&gt;&lt;/div&gt;" style="text;whiteSpace=wrap;html=1;align=center;" vertex="1" parent="6knvUdZFvinEVk0oOwhZ-1">
          <mxGeometry y="20" width="90" height="57" as="geometry" />
        </mxCell>
        <mxCell id="6knvUdZFvinEVk0oOwhZ-3" value="&lt;font face=&quot;Times New Roman&quot;&gt;D&amp;nbsp; &amp;nbsp; &amp;nbsp; &amp;nbsp; User Table&lt;/font&gt;" style="html=1;dashed=0;whiteSpace=wrap;shape=mxgraph.dfd.dataStoreID;align=left;spacingLeft=3;points=[[0,0],[0.5,0],[1,0],[0,0.5],[1,0.5],[0,1],[0.5,1],[1,1]];" vertex="1" parent="6knvUdZFvinEVk0oOwhZ-30">
          <mxGeometry x="98" y="431" width="100" height="30" as="geometry" />
        </mxCell>
        <mxCell id="6knvUdZFvinEVk0oOwhZ-4" value="1.2" style="swimlane;fontStyle=0;childLayout=stackLayout;horizontal=1;startSize=20;fillColor=#ffffff;horizontalStack=0;resizeParent=1;resizeParentMax=0;resizeLast=0;collapsible=0;marginBottom=0;swimlaneFillColor=#ffffff;align=left;fontFamily=Times New Roman;rounded=1;" vertex="1" parent="6knvUdZFvinEVk0oOwhZ-30">
          <mxGeometry x="125" y="289" width="90" height="77" as="geometry" />
        </mxCell>
        <mxCell id="6knvUdZFvinEVk0oOwhZ-5" value="&lt;font face=&quot;Times New Roman&quot;&gt;&lt;span style=&quot;background-color: rgb(255, 255, 255);&quot;&gt;Assign&lt;/span&gt;&lt;/font&gt;&lt;div&gt;&lt;font face=&quot;Times New Roman&quot;&gt;&lt;span style=&quot;background-color: rgb(255, 255, 255);&quot;&gt;Roles&lt;/span&gt;&lt;/font&gt;&lt;/div&gt;" style="text;whiteSpace=wrap;html=1;align=center;" vertex="1" parent="6knvUdZFvinEVk0oOwhZ-4">
          <mxGeometry y="20" width="90" height="57" as="geometry" />
        </mxCell>
        <mxCell id="6knvUdZFvinEVk0oOwhZ-9" style="edgeStyle=orthogonalEdgeStyle;rounded=0;orthogonalLoop=1;jettySize=auto;html=1;entryX=0;entryY=0.5;entryDx=0;entryDy=0;" edge="1" parent="6knvUdZFvinEVk0oOwhZ-30" source="6knvUdZFvinEVk0oOwhZ-2" target="6knvUdZFvinEVk0oOwhZ-3">
          <mxGeometry relative="1" as="geometry">
            <Array as="points">
              <mxPoint x="70" y="447" />
              <mxPoint x="98" y="447" />
            </Array>
          </mxGeometry>
        </mxCell>
        <mxCell id="6knvUdZFvinEVk0oOwhZ-10" value="&lt;font face=&quot;Times New Roman&quot;&gt;Store user&amp;nbsp;&lt;/font&gt;&lt;div style=&quot;font-size: 11px;&quot;&gt;&lt;font style=&quot;font-size: 12px;&quot; face=&quot;Times New Roman&quot;&gt;information&amp;nbsp;&lt;/font&gt;&lt;/div&gt;" style="text;html=1;align=center;verticalAlign=middle;resizable=0;points=[];autosize=1;strokeColor=none;fillColor=none;" vertex="1" parent="6knvUdZFvinEVk0oOwhZ-30">
          <mxGeometry x="62" y="374" width="78" height="41" as="geometry" />
        </mxCell>
        <mxCell id="6knvUdZFvinEVk0oOwhZ-12" value="&lt;span style=&quot;font-family: &amp;quot;Times New Roman&amp;quot;;&quot;&gt;Update&lt;/span&gt;&lt;div&gt;&lt;span style=&quot;font-family: &amp;quot;Times New Roman&amp;quot;;&quot;&gt;&amp;nbsp;Roles&lt;/span&gt;&lt;/div&gt;" style="text;html=1;align=center;verticalAlign=middle;resizable=0;points=[];autosize=1;strokeColor=none;fillColor=none;labelBackgroundColor=none;" vertex="1" parent="6knvUdZFvinEVk0oOwhZ-30">
          <mxGeometry x="162" y="374" width="53" height="41" as="geometry" />
        </mxCell>
        <mxCell id="6knvUdZFvinEVk0oOwhZ-13" value="4" style="swimlane;fontStyle=0;childLayout=stackLayout;horizontal=1;startSize=20;fillColor=#ffffff;horizontalStack=0;resizeParent=1;resizeParentMax=0;resizeLast=0;collapsible=0;marginBottom=0;swimlaneFillColor=#ffffff;align=left;rounded=1;" vertex="1" parent="6knvUdZFvinEVk0oOwhZ-30">
          <mxGeometry x="264" y="260" width="90" height="77" as="geometry" />
        </mxCell>
        <mxCell id="6knvUdZFvinEVk0oOwhZ-14" value="&lt;span style=&quot;font-family: &amp;quot;Times New Roman&amp;quot;;&quot;&gt;View&amp;nbsp;&lt;/span&gt;&lt;div&gt;&lt;span style=&quot;font-family: &amp;quot;Times New Roman&amp;quot;;&quot;&gt;Reports&lt;/span&gt;&lt;/div&gt;" style="text;whiteSpace=wrap;html=1;align=center;" vertex="1" parent="6knvUdZFvinEVk0oOwhZ-13">
          <mxGeometry y="20" width="90" height="57" as="geometry" />
        </mxCell>
        <mxCell id="6knvUdZFvinEVk0oOwhZ-15" value="&lt;font face=&quot;Times New Roman&quot;&gt;D&amp;nbsp; &amp;nbsp; &amp;nbsp; &amp;nbsp; Attendance &lt;span style=&quot;white-space: pre;&quot;&gt;&#x9;&lt;/span&gt;&lt;span style=&quot;white-space: pre;&quot;&gt;&#x9;&lt;/span&gt;Table&lt;/font&gt;" style="html=1;dashed=0;whiteSpace=wrap;shape=mxgraph.dfd.dataStoreID;align=left;spacingLeft=3;points=[[0,0],[0.5,0],[1,0],[0,0.5],[1,0.5],[0,1],[0.5,1],[1,1]];" vertex="1" parent="6knvUdZFvinEVk0oOwhZ-30">
          <mxGeometry x="248" y="428" width="102" height="36" as="geometry" />
        </mxCell>
        <mxCell id="6knvUdZFvinEVk0oOwhZ-16" value="&lt;font face=&quot;Times New Roman&quot;&gt;D&amp;nbsp; &amp;nbsp; &amp;nbsp; &amp;nbsp; &amp;nbsp;OTP Table&lt;/font&gt;" style="html=1;dashed=0;whiteSpace=wrap;shape=mxgraph.dfd.dataStoreID;align=left;spacingLeft=3;points=[[0,0],[0.5,0],[1,0],[0,0.5],[1,0.5],[0,1],[0.5,1],[1,1]];" vertex="1" parent="6knvUdZFvinEVk0oOwhZ-30">
          <mxGeometry x="595" y="135.5" width="100" height="30" as="geometry" />
        </mxCell>
        <mxCell id="6knvUdZFvinEVk0oOwhZ-17" value="2.1 " style="swimlane;fontStyle=0;childLayout=stackLayout;horizontal=1;startSize=20;fillColor=#ffffff;horizontalStack=0;resizeParent=1;resizeParentMax=0;resizeLast=0;collapsible=0;marginBottom=0;swimlaneFillColor=#ffffff;align=left;fontFamily=Times New Roman;rounded=1;" vertex="1" parent="6knvUdZFvinEVk0oOwhZ-30">
          <mxGeometry x="431.5" width="90" height="77" as="geometry" />
        </mxCell>
        <mxCell id="6knvUdZFvinEVk0oOwhZ-18" value="&lt;span style=&quot;font-family: &amp;quot;Times New Roman&amp;quot;;&quot;&gt;Generate&amp;nbsp;&lt;/span&gt;&lt;div&gt;&lt;span style=&quot;font-family: &amp;quot;Times New Roman&amp;quot;;&quot;&gt;OTP&lt;/span&gt;&lt;/div&gt;" style="text;whiteSpace=wrap;html=1;align=center;" vertex="1" parent="6knvUdZFvinEVk0oOwhZ-17">
          <mxGeometry y="20" width="90" height="57" as="geometry" />
        </mxCell>
        <mxCell id="6knvUdZFvinEVk0oOwhZ-19" value="3.1 " style="swimlane;fontStyle=0;childLayout=stackLayout;horizontal=1;startSize=20;fillColor=#ffffff;horizontalStack=0;resizeParent=1;resizeParentMax=0;resizeLast=0;collapsible=0;marginBottom=0;swimlaneFillColor=#ffffff;align=left;fontFamily=Times New Roman;rounded=1;" vertex="1" parent="6knvUdZFvinEVk0oOwhZ-30">
          <mxGeometry x="600" y="260" width="90" height="77" as="geometry" />
        </mxCell>
        <mxCell id="6knvUdZFvinEVk0oOwhZ-20" value="&lt;span style=&quot;font-family: &amp;quot;Times New Roman&amp;quot;;&quot;&gt;Validate&amp;nbsp;&lt;/span&gt;&lt;div&gt;&lt;span style=&quot;font-family: &amp;quot;Times New Roman&amp;quot;;&quot;&gt;OTP&lt;/span&gt;&lt;/div&gt;" style="text;whiteSpace=wrap;html=1;align=center;" vertex="1" parent="6knvUdZFvinEVk0oOwhZ-19">
          <mxGeometry y="20" width="90" height="57" as="geometry" />
        </mxCell>
        <mxCell id="6knvUdZFvinEVk0oOwhZ-21" value="2.2 " style="swimlane;fontStyle=0;childLayout=stackLayout;horizontal=1;startSize=20;fillColor=#ffffff;horizontalStack=0;resizeParent=1;resizeParentMax=0;resizeLast=0;collapsible=0;marginBottom=0;swimlaneFillColor=#ffffff;align=left;fontFamily=Times New Roman;rounded=1;" vertex="1" parent="6knvUdZFvinEVk0oOwhZ-30">
          <mxGeometry x="434" y="141" width="90" height="77" as="geometry" />
        </mxCell>
        <mxCell id="6knvUdZFvinEVk0oOwhZ-22" value="&lt;span style=&quot;font-family: &amp;quot;Times New Roman&amp;quot;;&quot;&gt;Send OTP to Student&lt;/span&gt;" style="text;whiteSpace=wrap;html=1;align=center;" vertex="1" parent="6knvUdZFvinEVk0oOwhZ-21">
          <mxGeometry y="20" width="90" height="57" as="geometry" />
        </mxCell>
        <mxCell id="6knvUdZFvinEVk0oOwhZ-23" value="3.2 " style="swimlane;fontStyle=0;childLayout=stackLayout;horizontal=1;startSize=20;fillColor=#ffffff;horizontalStack=0;resizeParent=1;resizeParentMax=0;resizeLast=0;collapsible=0;marginBottom=0;swimlaneFillColor=#ffffff;align=left;fontFamily=Times New Roman;rounded=1;" vertex="1" parent="6knvUdZFvinEVk0oOwhZ-30">
          <mxGeometry x="465" y="398" width="90" height="77" as="geometry" />
        </mxCell>
        <mxCell id="6knvUdZFvinEVk0oOwhZ-24" value="&lt;span style=&quot;font-family: &amp;quot;Times New Roman&amp;quot;;&quot;&gt;Mark&amp;nbsp;&lt;/span&gt;&lt;div&gt;&lt;span style=&quot;font-family: &amp;quot;Times New Roman&amp;quot;;&quot;&gt;Attendance&lt;/span&gt;&lt;/div&gt;" style="text;whiteSpace=wrap;html=1;align=center;" vertex="1" parent="6knvUdZFvinEVk0oOwhZ-23">
          <mxGeometry y="20" width="90" height="57" as="geometry" />
        </mxCell>
        <mxCell id="6knvUdZFvinEVk0oOwhZ-25" style="edgeStyle=orthogonalEdgeStyle;rounded=0;orthogonalLoop=1;jettySize=auto;html=1;entryX=1;entryY=0.5;entryDx=0;entryDy=0;exitX=0.533;exitY=1.018;exitDx=0;exitDy=0;exitPerimeter=0;" edge="1" parent="6knvUdZFvinEVk0oOwhZ-30" source="6knvUdZFvinEVk0oOwhZ-20" target="6knvUdZFvinEVk0oOwhZ-24">
          <mxGeometry relative="1" as="geometry" />
        </mxCell>
        <mxCell id="6knvUdZFvinEVk0oOwhZ-28" value="&lt;span style=&quot;font-family: &amp;quot;Times New Roman&amp;quot;;&quot;&gt;Request OTP&lt;/span&gt;" style="text;html=1;align=center;verticalAlign=middle;resizable=0;points=[];autosize=1;strokeColor=none;fillColor=none;" vertex="1" parent="6knvUdZFvinEVk0oOwhZ-30">
          <mxGeometry x="323" y="37" width="82" height="26" as="geometry" />
        </mxCell>
        <mxCell id="6knvUdZFvinEVk0oOwhZ-32" style="edgeStyle=orthogonalEdgeStyle;rounded=0;orthogonalLoop=1;jettySize=auto;html=1;entryX=0.724;entryY=0.019;entryDx=0;entryDy=0;entryPerimeter=0;" edge="1" parent="6knvUdZFvinEVk0oOwhZ-30" source="6knvUdZFvinEVk0oOwhZ-5" target="6knvUdZFvinEVk0oOwhZ-3">
          <mxGeometry relative="1" as="geometry" />
        </mxCell>
      </root>
    </mxGraphModel>
  </diagram>
</mxfile>
